<svg width="20" height="20" viewBox="0 0 20 20" fill="none" xmlns="http://www.w3.org/2000/svg">
<path d="M6.72746 10.1617L3.50996 6.94422C2.24329 8.32506 1.76329 9.70839 1.75496 9.73672L1.66663 10.0001L1.75413 10.2634C1.77246 10.3192 3.68413 15.8334 10.045 15.8334C10.8191 15.8334 11.5241 15.7484 12.1716 15.6059L9.88329 13.3176C9.05936 13.2772 8.27992 12.9317 7.69661 12.3484C7.1133 11.7651 6.76785 10.9857 6.72746 10.1617ZM10.045 4.16672C8.49913 4.16672 7.23246 4.50339 6.17663 4.99839L3.08913 1.91089L1.91079 3.08922L16.9108 18.0892L18.0891 16.9109L15.3408 14.1626C17.5391 12.5351 18.3233 10.2984 18.335 10.2634L18.4225 10.0001L18.335 9.73672C18.3166 9.68089 16.4058 4.16672 10.045 4.16672ZM11.6333 10.4551C11.7891 9.89089 11.6566 9.25589 11.2233 8.82172C10.79 8.38756 10.1541 8.25589 9.58996 8.41172L8.33329 7.15506C8.84826 6.83837 9.44041 6.66943 10.045 6.66672C11.8833 6.66672 13.3783 8.16172 13.3783 10.0001C13.3758 10.6045 13.2065 11.1965 12.8891 11.7109L11.6333 10.4551Z" fill="black"/>
</svg>
