<svg width="17" height="20" viewBox="0 0 17 20" fill="none" xmlns="http://www.w3.org/2000/svg">
<g clip-path="url(#clip0_6_1769)">
<path d="M4.54545 9.09091H11.8182V6.36364C11.8182 5.35985 11.4631 4.50284 10.7528 3.79261C10.0426 3.08239 9.18561 2.72727 8.18182 2.72727C7.17803 2.72727 6.32102 3.08239 5.6108 3.79261C4.90057 4.50284 4.54545 5.35985 4.54545 6.36364V9.09091ZM16.3636 10.4545V18.6364C16.3636 19.0152 16.2311 19.3371 15.9659 19.6023C15.7008 19.8674 15.3788 20 15 20H1.36364C0.984848 20 0.662879 19.8674 0.397727 19.6023C0.132576 19.3371 0 19.0152 0 18.6364V10.4545C0 10.0758 0.132576 9.75379 0.397727 9.48864C0.662879 9.22348 0.984848 9.09091 1.36364 9.09091H1.81818V6.36364C1.81818 4.62121 2.44318 3.125 3.69318 1.875C4.94318 0.625 6.43939 0 8.18182 0C9.92424 0 11.4205 0.625 12.6705 1.875C13.9205 3.125 14.5455 4.62121 14.5455 6.36364V9.09091H15C15.3788 9.09091 15.7008 9.22348 15.9659 9.48864C16.2311 9.75379 16.3636 10.0758 16.3636 10.4545Z" fill="black"/>
</g>
<defs>
<clipPath id="clip0_6_1769">
<rect width="16.3636" height="20" fill="white"/>
</clipPath>
</defs>
</svg>
