<svg width="20" height="20" viewBox="0 0 20 20" fill="none" xmlns="http://www.w3.org/2000/svg">
<path d="M2.14282 7.23153L9.75282 11.1894C9.82916 11.2291 9.91393 11.2498 9.99997 11.2498C10.086 11.2498 10.1708 11.2291 10.2471 11.1894L17.8571 7.23225V14.1072C17.8571 14.7002 17.6303 15.2707 17.2231 15.7017C16.8158 16.1327 16.2591 16.3915 15.6671 16.4251L15.5357 16.4287H4.46425C3.8713 16.4287 3.3008 16.2019 2.8698 15.7946C2.4388 15.3874 2.17996 14.8307 2.14639 14.2387L2.14282 14.1072V7.23153ZM4.46425 3.57153H15.5357C16.1286 3.57149 16.6991 3.79836 17.1301 4.20558C17.5611 4.61281 17.82 5.16953 17.8535 5.76153L17.8571 5.89296V6.02439L9.99997 10.1101L2.14282 6.02439V5.89296C2.14278 5.30001 2.36965 4.72951 2.77687 4.29851C3.1841 3.86751 3.74082 3.60868 4.33282 3.5751L4.46425 3.57153H15.5357H4.46425Z" fill="black"/>
</svg>
